<svg xmlns="http://www.w3.org/2000/svg" width="731" height="404" viewBox="0 0 731 404">
    <path fill="#ffb6b6"
        d="m254.284 136.563 6.245-21.887 9.105 4.686 44.021-16.29 7.39-3.135a22.864 22.864 0 0 1 8.335-6.867c8.167-4.09 16.898-3.192 19.5 2.006 2.603 5.197-1.908 12.726-10.078 16.817a22.862 22.862 0 0 1-10.488 2.561l-25.17 12.213L269 143.547l-14.716-6.984Z" />
    <path fill="#e11d48"
        d="m237.521 107.228 1.265 17.14 19.18 18.82 1.593-4.125 3.458-8.935 4.56-11.827 1.048-2.705-15.034-17.314-12.48-14.38c-2.946 7.376-4.168 15.35-3.59 23.326Z" />
    <path fill="#e11d48"
        d="M342.816 67.056s-1.923-6.274.63-11.121a5814.723 5814.723 0 0 0 5.483-10.444s4.52 1.227 2.372 10.755c0 0 6.219-12.782 8.665-11.605s1.73 4.353 1.73 4.353a5.4 5.4 0 0 1 5.302 2.464l-3.383 7.8s9.088-7.637 10.144-6.773c1.057.864 2.647 7.125 2.647 7.125s4.02-1.18 5.781.26c1.761 1.44-4.535 10.867-4.535 10.867 1.807-2.87 4.241-3.391 7.266-1.7 0 0-3.586 14.522-13.363 14.404-3.35-.04-10.731 5.204-15.037 2.868-8.259-4.481-13.702-19.253-13.702-19.253Z" />
    <path fill="#3f3d56"
        d="M354.386 68.934c-2.737-7.292-4.12-9.48-4.12-9.48s-7.037-1.17-7.988 6.75l-1.493-2.63s-2.374 5.713 5.557 16.06c8.582 11.198 18.013 8.38 18.915 6.767 0 0 13.676 2.249 18.658-10.602l-4.456-.588-13.903 7.086.242-5.079c.16-3.345-3.656-5.359-6.328-3.34 0 0-2.348 2.347-5.084-4.944Z" />
    <path fill="#3f3d56"
        d="M332.25 124.04a1.09 1.09 0 0 1-.523-1.188c4.376-19.412 18.408-41.753 18.55-41.977a1.091 1.091 0 0 1 1.845 1.165c-.14.221-13.974 22.252-18.267 41.292a1.09 1.09 0 0 1-1.605.707Z" />
    <path fill="#ffb6b6"
        d="M385.81 95.365a19.483 19.483 0 0 1 6.673 6.334l10.583 6.447 31.842 17.922 12.175 13.798L436 149.302l-39.226-27.976-11.341-7.72a19.47 19.47 0 0 1-8.766-2.808c-6.7-3.965-10.082-10.636-7.558-14.898 2.524-4.263 10-4.503 16.7-.535Z" />
    <path fill="#e11d48"
        d="m434.904 126.069 3.796 20.925.469 2.619 43.313-27.962 3.262-13.3-.022-.119-3.447-16.104-47.371 33.941z" />
    <path fill="#ffb6b6" d="m217.011 386.603 11.045 3.382 18.302-40.989-16.3-4.992-13.047 42.599z" />
    <path fill="#2f2e41"
        d="M254.926 397.943c.166.685-.225 2.61-.431 3.283a3.92 3.92 0 0 1-4.897 2.6l-34.201-10.477a2.674 2.674 0 0 1-1.774-3.34l.436-1.424s-.381-4.798 4.718-9.006c0 0 3.064 5.457 11.515.97l2.967-2.872 10.715 14.33 7.366 3.286c1.611.719 3.169.936 3.586 2.65Z" />
    <path fill="#ffb6b6" d="m330.348 396.82 11.22-2.743-5.24-44.583-16.56 4.049 10.58 43.277z" />
    <path fill="#2f2e41"
        d="M368.727 387.17c.493.504 1.142 2.358 1.31 3.042a3.92 3.92 0 0 1-2.878 4.739l-34.748 8.492a2.674 2.674 0 0 1-3.233-1.963l-.354-1.446s-2.781-3.928-.552-10.152c0 0 5.424 3.12 10.39-5.058l1.08-3.985 16.538 6.832 8.01-.943c1.752-.207 3.202-.817 4.437.443Z" />
    <path fill="#ffb6b6" d="m453.795 395.759-12.948-.001-6.159-49.942 19.109.001-.002 49.942z" />
    <path fill="#2f2e41"
        d="M409.434 395.466c-.403.679-.616 2.87-.616 3.66a4.395 4.395 0 0 0 4.394 4.394h40.098a2.998 2.998 0 0 0 2.998-2.998v-1.67s1.984-5.017-2.1-11.2c0 0-5.076 4.842-12.66-2.743l-2.237-4.052-16.19 11.84-8.973 1.105c-1.964.242-3.704-.037-4.714 1.664Z" />
    <path fill="#ffb6b6" d="m496.61 385.95-12.55 3.183-18.251-46.894 18.523-4.698 12.278 48.409z" />
    <path fill="#2f2e41"
        d="M453.54 396.574c-.224.757.108 2.934.303 3.699a4.395 4.395 0 0 0 5.34 3.179l38.866-9.86a2.998 2.998 0 0 0 2.17-3.643l-.411-1.618s.689-5.352-4.79-10.342c0 0-3.73 5.942-12.946.456l-3.165-3.378-12.78 15.458-8.427 3.278c-1.844.717-3.6.874-4.16 2.77v.001ZM433.91 161.8l37.095 4.363 6.546 16.365s14.183 16.365-4.364 48.004l-6.546 50.186 24.328 77.207-27.057 1-25.77-73.743-11.868-63.378-1.091-25.093 8.728-34.912Z" />
    <path fill="#2f2e41"
        d="m436.093 218.531-9.819 3.273 3.695 137.121h30l-23.876-140.394zM314.447 192.893l25.093 169.104-18.547 1.09-35.457-104.19-9.492 51.382-34.694 50.627-17.456-4.364 27.638-71.916-6.909-53.548s-7.637-24.002 0-34.912 69.824-3.273 69.824-3.273Z" />
    <path fill="#ffb6b6"
        d="m478.096 56.518.546 21.275-15.82 4.909-6-4.909-1.637-18.002 22.911-3.273zM258.806 58.7l6.546-18.546 25.093 17.455-5.455 15.274L258.806 58.7z" />
    <path fill="#e11d48"
        d="m426.034 129.08 3.491 15.601 3.938 17.62 37.956 4.462 11.063-45.112 3.262-13.3-.022-.119-3.447-16.104-3.197-14.88H456.57l-24.253 27.438a27.829 27.829 0 0 0-6.852 16.07c-.229 2.76-.043 5.565.568 8.324Z" />
    <circle cx="460.64" cy="42.336" r="24.002" fill="#ffb6b6" />
    <circle cx="288.263" cy="34.699" r="24.002" fill="#ffb6b6" />
    <path fill="#e11d48"
        d="m237.521 107.228 1.265 17.14 5.314 72.037.141.142c.099.11 10.289 10.004 26.828 1.19 15.961-8.51 47.23 3.186 47.545 3.305l.96.36-7.615-33.286-5.487-23.947-3.928-17.205-4.179-18.23-8.542-37.323-34.54-15.602L243.237 79.2a50.388 50.388 0 0 0-2.127 4.702c-2.946 7.376-4.168 15.35-3.59 23.326Z" />
    <path fill="#2f2e41"
        d="m297.537 31.971 3.273-2.182v-7.637s15.274 3.273 12-8.728c-3.272-12-18.424-14.439-30.547-13.092-.491.055-.982.104-1.472.148-11.7 1.052-21.218 9.943-22.662 21.602-1.569 12.664-.94 26.172 8.86 26.254l9.819 3.273s-4.364-20.729 4.364-16.365 16.365-3.273 16.365-3.273Z" />
    <path fill="#e11d48"
        d="M325.885 64.325s-4.78-4.496-4.965-9.971-.413-11.789-.413-11.789 4.535-1.174 7.39 8.166c0 0-.932-14.183 1.776-14.373s3.66 2.923 3.66 2.923a5.4 5.4 0 0 1 5.826-.487l.926 8.451s4.11-11.137 5.455-10.91c1.346.227 5.83 4.877 5.83 4.877s2.907-3.017 5.15-2.639 1.446 11.686 1.446 11.686c.147-3.389 2.004-5.047 5.47-5.077 0 0 4.08 14.39-4.47 19.133-2.93 1.625-6.741 9.838-11.64 9.943-9.393.2-21.441-9.933-21.441-9.933Z" />
    <path fill="#3f3d56"
        d="M336.864 60.223c-5.99-4.977-8.276-6.193-8.276-6.193s-6.691 2.472-3.593 9.822l-2.6-1.545s.77 6.139 12.786 11.197c13.003 5.472 19.798-1.65 19.782-3.497 0 0 12.993-4.824 10.952-18.455l-4.162 1.698-8.564 13.044-2.307-4.531c-1.52-2.985-5.83-2.843-7.15.235 0 0-.878 3.201-6.868-1.775Z" />
    <path fill="#3f3d56"
        d="M344.946 119.056c-.467 0-.899-.302-1.042-.773-5.82-19.028-4.703-45.388-4.691-45.652a1.091 1.091 0 0 1 2.18.098c-.012.26-1.11 26.252 4.597 44.917a1.09 1.09 0 0 1-1.044 1.41Z" />
    <path fill="#ffb6b6"
        d="m253.157 145.203 19.85-5.197.541 9.216 32.841 26.684 5.824 4.295a20.612 20.612 0 0 1 9.153 3.317c6.922 4.46 10.232 11.648 7.392 16.053-2.839 4.404-10.75 4.359-17.674-.104a20.61 20.61 0 0 1-6.8-6.963l-21.028-13.928-28.766-18.75-1.333-14.623Z" />
    <path fill="#e11d48" d="m266.047 77.793 17.568 9.975-3.286 62.841-33.618 5.613 19.336-78.429z" />
    <path fill="#ffb6b6"
        d="M456.258 190.165a19.484 19.484 0 0 1 7.202-5.727l7.857-9.582 22.179-29.038 15.358-10.137 7.801 12.289-33.162 34.951-9.224 10.156a19.47 19.47 0 0 1-4 8.29c-4.858 6.082-11.936 8.504-15.805 5.411-3.87-3.093-3.067-10.53 1.794-16.613Z" />
    <path fill="#e11d48" d="m465.345 92.013 20.726-14.803 31.334 67.669-23.909.939-28.151-53.805z" />
    <path fill="#2f2e41"
        d="M440.457 29.79s3.664-7.585 5.628-1.985 12.438 19.6 12.438 19.6 5.565 7.778-.654 14.312-19.64 38.266-.982 32.978c18.657-5.29 28.15 7.155 28.15 7.155s16.039 1.245 13.747-14.933S484.71 60.16 484.71 40.56s-11.129-28-17.675-27.067-30.505 1.05-26.577 16.295Z" />
</svg>