<svg xmlns="http://www.w3.org/2000/svg" width="1061" height="700" viewBox="0 59 1061 814">
    <path fill="#2f2e41"
        d="M911.36 646.404s7.76 26.73 12.934 33.628 9.485 18.107 6.899 19.832-7.76 22.419-.863 23.28 22.419-22.418 23.281-30.178 4.312-35.353 4.312-35.353 6.035-24.143-3.45-25.868-24.143-2.586-24.143-2.586ZM875.146 674.858s-11.21 29.317-13.796 31.042-12.072 17.245 6.898 17.245 29.316-5.174 29.316-5.174l6.036-6.898s0-18.107-1.724-20.694 0-15.52 0-15.52Z" />
    <path fill="#2f2e41"
        d="M798.405 406.696s-13.797 93.124-1.725 123.303 24.143 38.801 24.143 38.801l91.4 85.364s28.454-14.658 25.868-24.143c0 0-6.036-3.45-6.898-6.036s-12.072-3.449-12.072-3.449-5.174-6.036-5.174-9.485-44.837-64.67-59.496-68.98c0 0-7.76-9.485-6.898-11.21s-2.586-7.76-2.586-7.76l8.622-33.628 54.323-8.623s22.418-79.328 3.449-85.364-112.956 11.21-112.956 11.21Z" />
    <path fill="#2f2e41"
        d="m906.187 467.054 1.725 13.796s0 36.215-1.725 39.664-2.587 8.623 0 12.072 6.898 12.071 5.174 15.52 3.449 100.885-3.45 107.783-4.31 15.52-3.448 16.383-.863 4.31-.863 4.31-35.352 6.037-32.766 0 2.587-9.484 4.312-11.209 0-4.31 0-4.31 2.587-27.593 0-29.318-10.347-84.501-10.347-85.363-2.587-2.587-2.587-6.036 0-14.659-4.311-16.383-3.45-43.975-3.45-43.975Z" />
    <path fill="#ffb9b9"
        d="M844.967 159.227s3.449 25.868 13.796 31.042 17.245 7.76 17.245 7.76l-8.623 30.18-3.449 25.867h-39.664l-21.556-17.245 6.898-28.455 3.449-5.173s4.311-18.97.862-25.006 31.042-18.97 31.042-18.97Z" />
    <path fill="#e11d48"
        d="m827.721 222.172 6.036 11.21s4.312-15.521 10.347-18.108 20.695-6.898 20.695-10.347-.863-12.071 2.586-12.071 37.078 10.347 42.251 13.796 6.036 6.898 6.036 6.898l-9.485 99.16s13.796 46.562 9.485 64.669-7.76 20.694-18.108 23.28-4.31-6.035-34.49 2.588-49.149 6.036-56.047 6.036-11.21 3.449-12.934 4.31-.862-4.31 5.174-12.07 3.449-20.695 3.449-20.695-6.898-22.419-2.587-31.041 10.347-19.832 5.174-23.281-12.072-29.317-12.072-29.317l-18.97-67.256 38.802-26.73s-1.724 12.071 4.311 14.658 10.347 4.311 10.347 4.311Z" />
    <path fill="#e11d48"
        d="M779.435 229.07h-5.174s-8.622 14.659-8.622 25.006 4.311 68.98 4.311 68.98l25.006 25.868 6.035-19.832 1.725-43.975Z" />
    <path fill="#e11d48"
        d="M793.231 320.47s-28.454-7.76-27.592 4.311 5.173 26.73 18.97 30.18 18.107-15.521 18.107-15.521 1.724-17.246-9.485-18.97Z" />
    <path fill="#ffb9b9"
        d="M900.151 360.134s-1.724 39.664-12.071 43.975l25.005 6.036s12.072-41.389 10.347-43.113-23.28-6.898-23.28-6.898Z" />
    <path fill="#2f2e41"
        d="m752.256 279.397 14.808-6.468a2.276 2.276 0 0 1 2.996 1.174l16.463 37.685a2.78 2.78 0 0 1-1.435 3.66l-13.884 6.065a2.78 2.78 0 0 1-3.66-1.435l-16.462-37.684a2.276 2.276 0 0 1 1.174-2.997Z" />
    <path
        d="m752.256 279.397 14.808-6.468a2.276 2.276 0 0 1 2.996 1.174l16.463 37.685a2.78 2.78 0 0 1-1.435 3.66l-13.884 6.065a2.78 2.78 0 0 1-3.66-1.435l-16.462-37.684a2.276 2.276 0 0 1 1.174-2.997Z"
        opacity=".1" />
    <path fill="#2f2e41"
        d="m753.096 281.32 12.91-5.639a2.276 2.276 0 0 1 2.997 1.174l15.622 35.762a2.78 2.78 0 0 1-1.435 3.66l-11.986 5.236a2.78 2.78 0 0 1-3.66-1.435l-15.622-35.76a2.276 2.276 0 0 1 1.174-2.997Z" />
    <ellipse cx="832.638" cy="335.528" fill="#f2f2f2" rx="4.142" ry="4.198"
        transform="rotate(-23.598 695.519 480.122)" />
    <path
        d="m906.618 225.19 5.605-8.191s20.694 31.903 18.97 53.46-3.45 22.419-3.45 25.868-4.31 3.449 0 7.76 10.348 10.347 6.899 13.796-6.036 3.45-5.174 7.76a57.012 57.012 0 0 1 .862 9.485s-7.329 14.228-9.916 14.228-27.16 22.85-27.16 20.263 2.586-20.695 2.586-23.281.862-11.21 2.587-13.797 1.724-1.724 0-4.31-1.725 0-1.725-2.588.862-6.035-1.724-6.898-5.174 0-3.45-4.311 0-7.76-.862-7.76-5.173-.863-2.586-3.45-5.174-52.597-5.174-52.597 1.293-12.503 23.712-25.437Z"
        opacity=".1" />
    <path fill="#e11d48"
        d="m901.876 206.652 14.658 6.898s20.694 31.903 18.97 53.46-3.45 22.419-3.45 25.868-4.31 3.449 0 7.76 10.348 10.347 6.899 13.796-6.036 3.449-5.174 7.76a57.012 57.012 0 0 1 .863 9.485s-7.76 41.389-10.348 41.389-26.73-4.312-26.73-6.898 2.587-20.695 2.587-23.281.863-11.21 2.587-13.797 1.725-1.724 0-4.31-1.724 0-1.724-2.588.862-6.035-1.725-6.898-5.174 0-3.449-4.311 0-7.76-.862-7.76-5.174-.863-2.587-3.45-5.174-52.597-5.174-52.597-7.76-27.592 14.659-40.526Z" />
    <path fill="#ffb9b9"
        d="M771.037 326.628a3.614 3.614 0 0 1-4.157-1.876c-3.963-7.922-14.699-31.16-4.69-31.874 9.233-.66 17.457 17.344 20.814 25.848a4.108 4.108 0 0 1-2.776 5.483Z" />
    <circle cx="820.823" cy="151.467" r="31.904" fill="#ffb9b9" />
    <path fill="#2f2e41"
        d="M809.1 133.093a62.852 62.852 0 0 1-12.265 2.895c-3.142.49-6.819.742-9.027-1.547-2.167-2.245-1.817-5.991-.338-8.74s3.846-4.903 5.622-7.47c2.794-4.035 4.443-9.385 8.91-11.418a16.39 16.39 0 0 1 5.8-1.083c11.592-.74 23.659-1.405 34.395 3.03a25.316 25.316 0 0 1 10.382 7.388 27.568 27.568 0 0 1 4.15 8.046 52.513 52.513 0 0 1-9.448 50.425c-3.913-3.525-2.21-11.67-7.162-13.467-1.624-.59-3.46-.179-5.124-.645-5.228-1.467-4.966-9.547-9.318-12.794a8.313 8.313 0 0 1-2.48-2.037 5.066 5.066 0 0 1-.481-2.568c-.032-3.028 1.39-10.717-1.498-12.792-2.94-2.112-9.293 1.757-12.118 2.777Z" />
    <path fill="#e11d48" d="M499.815 59h263v138h-19v51l-51-51h-193V59z" />
    <path fill="#fff"
        d="m631.315 157.538-4.64-4.186c-16.48-15.13-27.36-24.95-27.36-37.184a17.403 17.403 0 0 1 17.6-17.706 18.93 18.93 0 0 1 14.4 6.76 18.93 18.93 0 0 1 14.4-6.76 17.403 17.403 0 0 1 17.6 17.706c0 12.234-10.88 22.054-27.359 37.184Z" />
    <path fill="#e11d48"
        d="m0 397.522 252.994-71.854 37.703 132.75-18.277 5.191 13.934 49.06-62.994-35.126-185.657 52.729L0 397.522z" />
    <path fill="#fff"
        d="m153.419 456.385-5.608-2.76c-19.987-10.052-33.135-16.526-36.478-28.293a17.403 17.403 0 0 1 12.093-21.842 18.93 18.93 0 0 1 15.7 2.57 18.93 18.93 0 0 1 12.004-10.439 17.403 17.403 0 0 1 21.769 12.225c3.342 11.768-4.441 24.187-16.16 43.244Z" />
    <path fill="#a0616a"
        d="M290.436 317.114s-8.551 25.654-3.8 31.355-28.505-17.103-28.505-17.103l18.053-20.904Z" />
    <circle cx="270.935" cy="274.411" r="42.661" fill="#2f2e41" />
    <path fill="#a0616a"
        d="m436.761 605.963-21.853 17.103-12.352-19.953 21.853-15.203 12.352 18.053z" />
    <path fill="#2f2e41"
        d="m405.881 734.71 5.701 27.555 16.153 21.854s43.707 13.302 14.252 19.953-36.106-4.75-36.106-4.75l-20.903-18.054v24.705h-13.303l-2.85-35.156s-1.9-10.452 6.65-21.854l1.901-17.103Z" />
    <path fill="#a0616a"
        d="m295.662 393.602 7.601 43.707s80.764-8.551 86.465 7.601 7.602 20.904 7.602 20.904l-16.153 5.701-7.601-14.252a18.047 18.047 0 0 0-14.253.95c-7.601 3.8-74.113 13.302-78.863.95s-18.054-57.96-18.054-57.96l19.954-16.153Z" />
    <path
        d="m295.662 393.602 7.601 43.707s80.764-8.551 86.465 7.601 7.602 20.904 7.602 20.904l-16.153 5.701-7.601-14.252a18.047 18.047 0 0 0-14.253.95c-7.601 3.8-74.113 13.302-78.863.95s-18.054-57.96-18.054-57.96l19.954-16.153Z"
        opacity=".1" />
    <path fill="#2f2e41"
        d="m340.32 519.973 6.651 22.804 17.103 87.415s1.9 64.611 4.75 72.213 2.851 8.551 0 11.402-8.55 12.352 0 18.053 38.957 12.352 39.908 5.7.95-17.102 0-21.853 2.85-78.863 2.85-78.863l-11.402-113.07-38.957-18.053Z" />
    <path
        d="m340.32 519.973 6.651 22.804 17.103 87.415s1.9 64.611 4.75 72.213 2.851 8.551 0 11.402-8.55 12.352 0 18.053 38.957 12.352 39.908 5.7.95-17.102 0-21.853 2.85-78.863 2.85-78.863l-11.402-113.07-38.957-18.053Z"
        opacity=".1" />
    <path fill="#2f2e41"
        d="m381.177 430.658 20.903 39.907s119.721 53.21 109.27 75.063-68.413 62.71-68.413 62.71-2.85 16.153-11.402 11.403-29.455-29.455-27.554-32.306 8.551-9.502 11.402-8.551 36.106-24.705 36.106-24.705l-57.01-14.252s-68.412-1.9-72.212-34.206 0-38.007 0-38.007l-4.751-10.451 38.957-23.754Z" />
    <path fill="#2f2e41"
        d="m410.632 588.385-19.954 18.053s-17.102-7.601-27.554-4.75-28.505 4.75-28.505 4.75l2.85 16.153 24.243-4.472-19.492 27.276s0 42.757 12.352 42.757 8.552-25.654 8.552-25.654l38.006-29.455s19.004-7.601 20.904-7.601-11.402-37.057-11.402-37.057Z" />
    <circle cx="286.636" cy="292.409" r="32.306" fill="#a0616a" />
    <path fill="#2f2e41"
        d="M254.805 317.589s15.203-3.801 19.954 0 5.7 12.352 12.352 13.302 12.352.95 13.302 1.9 22.804 27.555 22.804 27.555 13.302 7.601 16.153 18.053 31.355 45.608 35.156 49.409-24.705 22.803-34.206 29.455-37.057 9.501-45.608-5.701-55.11-114.02-39.907-133.973Z" />
    <path fill="#a0616a"
        d="m290.911 379.35 7.602 43.707s80.764-8.552 86.465 7.601 7.6 20.904 7.6 20.904l-16.152 5.7-7.601-14.252a18.047 18.047 0 0 0-14.253.95c-7.601 3.801-74.112 13.303-78.863.95s-18.053-57.96-18.053-57.96l19.953-16.152Z" />
    <path fill="#2f2e41"
        d="M272.754 321.586s22.908 48.262 21.008 61.564-8.552 3.8-8.552 3.8-8.551-13.302-12.352-5.7-8.551 18.053-12.352 17.102-24.704-71.262-13.302-77.913 25.55 1.147 25.55 1.147Z" />
    <circle cx="224.719" cy="218.242" r="42.661" fill="#2f2e41" />
    <path fill="#2f2e41"
        d="M187.922 253.567a42.663 42.663 0 0 0 65.88-22.4 42.663 42.663 0 1 1-83.22-17.495 42.647 42.647 0 0 0 17.34 39.895Z" />
    <circle cx="259.559" cy="281.521" r="31.284" fill="#2f2e41" />
    <ellipse cx="285.866" cy="269.79" fill="#2f2e41" rx="27.729" ry="21.686" />
    <ellipse cx="287.111" cy="295.735" fill="#a0616a" rx="6.176" ry="10.927" />
    <path fill="#2f2e41"
        d="M371.888 456.847s16.821-9.65 19.944-7.23 4.51 9.992 4.51 9.992l-19.44 7.63-5.702-10.451Z" />
</svg>